HIERARCHY
ROOT hips
{
  OFFSET 0 10.6860622 2.3727825e-15
  CHANNELS 6 Xposition Yposition Zposition Yrotation Xrotation Zrotation
  JOINT leftUpperLeg
  {
    OFFSET 0.6642549969 -0.9402397400000004 0
    CHANNELS 3 Yrotation Xrotation Zrotation
    JOINT leftLowerLeg
    {
      OFFSET 0 -3.997221335632195 0
      CHANNELS 3 Yrotation Xrotation Zrotation
      JOINT leftFoot
      {
        OFFSET -0.13777839790000004 -4.6145792000000005 -0.22186036399999998
        CHANNELS 3 Yrotation Xrotation Zrotation
        JOINT leftToes
        {
          OFFSET -0.03777410834999995 -0.9130806927000008 0.85230013
          CHANNELS 3 Yrotation Xrotation Zrotation
          End Site
          {
            OFFSET -0.03777410834999995 -0.9130806927000008 0.85230013
          }
        }
      }
    }
  }
  JOINT rightUpperLeg
  {
    OFFSET -0.6642778626 -0.9402397400000004 0
    CHANNELS 3 Yrotation Xrotation Zrotation
    JOINT rightLowerLeg
    {
      OFFSET 0 -3.997221452859387 0
      CHANNELS 3 Yrotation Xrotation Zrotation
      JOINT rightFoot
      {
        OFFSET 0.1377926176 -4.6145792000000005 -0.22185782299999995
        CHANNELS 3 Yrotation Xrotation Zrotation
        JOINT rightToes
        {
          OFFSET 0.037780746850000047 -0.9130806927000008 0.85230167
          CHANNELS 3 Yrotation Xrotation Zrotation
          End Site
          {
            OFFSET 0.037780746850000047 -0.9130806927000008 0.85230167
          }
        }
      }
    }
  }
  JOINT spine
  {
    OFFSET 0 0.13988381660000015 0
    CHANNELS 3 Yrotation Xrotation Zrotation
    JOINT chest
    {
      OFFSET 0 0.6191039003973773 0
      CHANNELS 3 Yrotation Xrotation Zrotation
      JOINT upperChest
      {
        OFFSET 0 0.9855186130586943 0
        CHANNELS 3 Yrotation Xrotation Zrotation
        JOINT leftShoulder
        {
          OFFSET 0.1807663869 1.5087829790000005 0
          CHANNELS 3 Yrotation Xrotation Zrotation
          JOINT leftUpperArm
          {
            OFFSET 0.5985063006419806 0 0
            CHANNELS 3 Yrotation Xrotation Zrotation
            JOINT leftLowerArm
            {
              OFFSET 2.2993332369501065 0 0
              CHANNELS 3 Yrotation Xrotation Zrotation
              JOINT leftHand
              {
                OFFSET 2.395047042602395 0 0
                CHANNELS 3 Yrotation Xrotation Zrotation
                JOINT leftIndexProximal
                {
                  OFFSET 0.5766295810000004 0.04556643899499946 0.17265095988184
                  CHANNELS 3 Yrotation Xrotation Zrotation
                  JOINT leftIndexIntermediate
                  {
                    OFFSET 0.2957229000000008 -0.019352197700001517 -0.007932640616999987
                    CHANNELS 3 Yrotation Xrotation Zrotation
                    JOINT leftIndexDistal
                    {
                      OFFSET 0.19008243099999922 -0.012484908149998475 -0.002786250786000012
                      CHANNELS 3 Yrotation Xrotation Zrotation
                      End Site
                      {
                        OFFSET 0.19008243099999922 -0.012484908149998475 -0.002786250786000012
                      }
                    }
                  }
                }
                JOINT leftMiddleProximal
                {
                  OFFSET 0.5834975091000001 0.0524350405149987 0.02204081888183999
                  CHANNELS 3 Yrotation Xrotation Zrotation
                  JOINT leftMiddleIntermediate
                  {
                    OFFSET 0.33880573540000003 -0.019871473270000717 -0.00000971183179999946
                    CHANNELS 3 Yrotation Xrotation Zrotation
                    JOINT leftMiddleDistal
                    {
                      OFFSET 0.20676022730000088 -0.012221336379999448 0.0001471936708000235
                      CHANNELS 3 Yrotation Xrotation Zrotation
                      End Site
                      {
                        OFFSET 0.20676022730000088 -0.012221336379999448 0.0001471936708000235
                      }
                    }
                  }
                }
                JOINT leftLittleProximal
                {
                  OFFSET 0.5344154683999995 -0.012880921405001189 -0.24414037221816004
                  CHANNELS 3 Yrotation Xrotation Zrotation
                  JOINT leftLittleIntermediate
                  {
                    OFFSET 0.21758961730000093 -0.011650919939999227 0.011893592810000034
                    CHANNELS 3 Yrotation Xrotation Zrotation
                    JOINT leftLittleDistal
                    {
                      OFFSET 0.1475273964999999 -0.008152365682999818 0.006001092492999946
                      CHANNELS 3 Yrotation Xrotation Zrotation
                      End Site
                      {
                        OFFSET 0.1475273964999999 -0.008152365682999818 0.006001092492999946
                      }
                    }
                  }
                }
                JOINT leftRingProximal
                {
                  OFFSET 0.5799399463000003 0.026911854694997794 -0.12150566991816003
                  CHANNELS 3 Yrotation Xrotation Zrotation
                  JOINT leftRingIntermediate
                  {
                    OFFSET 0.26167887460000006 -0.013480186499999602 0.010996293000000053
                    CHANNELS 3 Yrotation Xrotation Zrotation
                    JOINT leftRingDistal
                    {
                      OFFSET 0.17667108799999987 -0.008990287899999228 0.0055541023999999065
                      CHANNELS 3 Yrotation Xrotation Zrotation
                      End Site
                      {
                        OFFSET 0.17667108799999987 -0.008990287899999228 0.0055541023999999065
                      }
                    }
                  }
                }
                JOINT leftThumbProximal
                {
                  OFFSET 0.11018806699999972 -0.09448718900500053 0.17047963138184
                  CHANNELS 3 Yrotation Xrotation Zrotation
                  JOINT leftThumbIntermediate
                  {
                    OFFSET 0.31062601459999983 -0.08126270900000132 0.15443142000000007
                    CHANNELS 3 Yrotation Xrotation Zrotation
                    JOINT leftThumbDistal
                    {
                      OFFSET 0.21627175790000086 -0.08833193599999878 0.018771167799999988
                      CHANNELS 3 Yrotation Xrotation Zrotation
                      End Site
                      {
                        OFFSET 0.21627175790000086 -0.08833193599999878 0.018771167799999988
                      }
                    }
                  }
                }
              }
            }
          }
        }
        JOINT neck
        {
          OFFSET 0 1.5463305265074576 0
          CHANNELS 3 Yrotation Xrotation Zrotation
          JOINT head
          {
            OFFSET 0 0.8456443600000344 0
            CHANNELS 3 Yrotation Xrotation Zrotation
            JOINT leftEye
            {
              OFFSET 0.30408573140000006 0.5104519199999995 0.1276382305
              CHANNELS 3 Yrotation Xrotation Zrotation
              End Site
              {
                OFFSET 0.30408573140000006 0.5104519199999995 0.1276382305
              }
            }
            JOINT rightEye
            {
              OFFSET -0.30409491089999996 0.5104519199999995 0.1276379445
              CHANNELS 3 Yrotation Xrotation Zrotation
              End Site
              {
                OFFSET -0.30409491089999996 0.5104519199999995 0.1276379445
              }
            }
            JOINT jaw
            {
              OFFSET -3.155239131000001e-7 -0.11984121820000082 0.60178107
              CHANNELS 3 Yrotation Xrotation Zrotation
              End Site
              {
                OFFSET -3.155239131000001e-7 -0.11984121820000082 0.60178107
              }
            }
          }
        }
        JOINT rightShoulder
        {
          OFFSET -0.1807303465 1.5087829790000005 0
          CHANNELS 3 Yrotation Xrotation Zrotation
          JOINT rightUpperArm
          {
            OFFSET -0.5985063796536958 0 0
            CHANNELS 3 Yrotation Xrotation Zrotation
            JOINT rightLowerArm
            {
              OFFSET -2.2993322059002854 0 0
              CHANNELS 3 Yrotation Xrotation Zrotation
              JOINT rightHand
              {
                OFFSET -2.395045314457259 0 0
                CHANNELS 3 Yrotation Xrotation Zrotation
                JOINT rightIndexProximal
                {
                  OFFSET -0.5764487688300002 0.0441371204405987 0.17361932004999997
                  CHANNELS 3 Yrotation Xrotation Zrotation
                  JOINT rightIndexIntermediate
                  {
                    OFFSET -0.29573011380000047 -0.01934826376999843 -0.007698921482999974
                    CHANNELS 3 Yrotation Xrotation Zrotation
                    JOINT rightIndexDistal
                    {
                      OFFSET -0.19008373999999884 -0.012503266380000655 -0.0026365778999999897
                      CHANNELS 3 Yrotation Xrotation Zrotation
                      End Site
                      {
                        OFFSET -0.19008373999999884 -0.012503266380000655 -0.0026365778999999897
                      }
                    }
                  }
                }
                JOINT rightMiddleProximal
                {
                  OFFSET -0.5834852037300005 0.05211639405060153 0.02307162440000001
                  CHANNELS 3 Yrotation Xrotation Zrotation
                  JOINT rightMiddleIntermediate
                  {
                    OFFSET -0.33880114510000003 -0.019952774050000954 0.0002455003561999819
                    CHANNELS 3 Yrotation Xrotation Zrotation
                    JOINT rightMiddleDistal
                    {
                      OFFSET -0.20675694929999955 -0.012273788999999091 0.00030209124000002766
                      CHANNELS 3 Yrotation Xrotation Zrotation
                      End Site
                      {
                        OFFSET -0.20675694929999955 -0.012273788999999091 0.00030209124000002766
                      }
                    }
                  }
                }
                JOINT rightLittleProximal
                {
                  OFFSET -0.5346811737299992 -0.011214256288399227 -0.24363941305000003
                  CHANNELS 3 Yrotation Xrotation Zrotation
                  JOINT rightLittleIntermediate
                  {
                    OFFSET -0.21757715980000092 -0.011771559690000988 0.01201554387
                    CHANNELS 3 Yrotation Xrotation Zrotation
                    JOINT rightLittleDistal
                    {
                      OFFSET -0.1475201849000004 -0.00822055339600003 0.006082065407000015
                      CHANNELS 3 Yrotation Xrotation Zrotation
                      End Site
                      {
                        OFFSET -0.1475201849000004 -0.00822055339600003 0.006082065407000015
                      }
                    }
                  }
                }
                JOINT rightRingProximal
                {
                  OFFSET -0.5800810755299999 0.027657985680600072 -0.12066365025000003
                  CHANNELS 3 Yrotation Xrotation Zrotation
                  JOINT rightRingIntermediate
                  {
                    OFFSET -0.26166445029999974 -0.013623118409999302 0.011164098990000045
                    CHANNELS 3 Yrotation Xrotation Zrotation
                    JOINT rightRingDistal
                    {
                      OFFSET -0.17666387530000027 -0.009072900100000503 0.005668185599999959
                      CHANNELS 3 Yrotation Xrotation Zrotation
                      End Site
                      {
                        OFFSET -0.17666387530000027 -0.009072900100000503 0.005668185599999959
                      }
                    }
                  }
                }
                JOINT rightThumbProximal
                {
                  OFFSET -0.10997596379000074 -0.09577489355940072 0.16989765924999997
                  CHANNELS 3 Yrotation Xrotation Zrotation
                  JOINT rightThumbIntermediate
                  {
                    OFFSET -0.31036620999999986 -0.08229339117999834 0.15440884469999996
                    CHANNELS 3 Yrotation Xrotation Zrotation
                    JOINT rightThumbDistal
                    {
                      OFFSET -0.21631306399999906 -0.08825326400000111 0.018656797720000014
                      CHANNELS 3 Yrotation Xrotation Zrotation
                      End Site
                      {
                        OFFSET -0.21631306399999906 -0.08825326400000111 0.018656797720000014
                      }
                    }
                  }
                }
              }
            }
          }
        }
      }
    }
  }
}
MOTION
Frames: 8
Frame Time: 0.03333333333333333
0 11.682712981546562 0 0 0 0 0 0 -5.826343164929014 -0.3712483961610101 -3.6333298826370974 5.838118207697276 0 0 0 0 0 0 0 0 5.826343164929014 0.3712483961610101 -3.6333298826370974 -5.838118207697276 0 0 0 0 0 0 0 -4.610651315171937 0 0 3.0831277533083026 0 0 0 0 0 1.5275236235667615 0 0 0 0 0 0 0 0 0 0 0 0 0 0 0 0 0 0 0 0 0 0 0 0 0 0 0 0 0 0 0 0 0 0 0 0 0 0 0 0 0 0 0 0 0 0 0 0 0 0 0 0 0 0 0 0 1.5275236235667615 0 0 0 0 0 0 0 0 0 0 0 0 0 0 1.5275236235667615 0 0 0 0 0 0 0 0 0 0 0 0 0 0 0 0 0 0 0 0 0 0 0 0 0 0 0 0 0 0 0 0 0 0 0 0 0 0 0 0 0 0 0 0 0 0 0 0 0 0 0 0 0 0 0
-0.9359764453778902 -7.62019524566803 6.32125931736618 -179.9999958342228 76.11043719892822 -179.99999495602933 -166.20885673095694 -75.9838459525819 -150.30565058491106 -27.022094204647285 74.87939412358355 -17.59840568718117 -59.6968630216953 43.513700075084124 -20.634392085376092 0 0 0 166.42039169117436 -75.95903636089692 150.05192711244175 27.01804090172934 74.88643927196141 17.554239511532277 59.68751789630361 43.53969055740832 20.565176914022558 0 0 0 -0.31813361265308926 -6.253831214738001 -0.06198913825162722 -1.8021006680184715 -21.903835004983627 -0.05913813668386682 0 0 0 -24.797211360151607 -8.740212416850484 -1.7516100670512185 -20.091927103774385 1.3183050464019386 6.901276710993873 -42.0676011660773 7.680038804290753 39.56155725676703 -0.049644828021238305 -8.229764256515256 10.09885659040447 0 0 0 0 0 0 0 0 0 0 0 0 0 0 0 0 0 0 0 0 0 0 0 0 0 0 0 0 0 0 0 0 0 0 0 0 0 0 0 0 0 0 0 0 0 0 -30.08555767937707 0 0 -15.445881671514925 0 0 0 0 0 0 0 0 0 0 -10.458792528575435 10.46332452139371 -3.904194856549518 39.025762932721136 21.72599705839662 120.7936067610532 22.560425642653744 8.325303901595516 -4.789374784441082 48.885196066292735 -43.9106732694869 -36.58047927688943 0 0 0 0 0 0 0 0 0 0 0 0 0 0 0 0 0 0 0 0 0 0 0 0 0 0 0 0 0 0 0 0 0 0 0 0 0 0 0 0 0 0 0 0 0
-0.9359764453778902 -7.64859061118767 6.32125931736618 -179.99999547989452 77.218489921782 -179.99999459189914 -167.61093615088782 -76.44791389486195 -147.85366075872457 -27.022094204647285 74.87939412358355 -17.598407247102063 -60.38237193928083 44.06938065048043 -19.878274328165002 0 0 0 167.8998058535578 -76.3969119102819 147.49116110088065 27.018045277446173 74.88643927196141 17.554244194570384 60.39884571393353 44.122377704268466 19.795151263153965 0 0 0 -0.3186566362321424 -6.919733785819957 -0.05821863799892978 -1.7691165412928218 -19.070653353223147 -0.1532334969169376 0 0 0 -25.035881181075688 -9.113551820940257 -0.880731219173448 -20.091927103774385 1.3183050464019386 6.901276710993873 -41.726836970768844 7.400838410302071 39.31045240014041 -0.14957209412039987 -8.600656224366762 10.72549896166587 0 0 0 0 0 0 0 0 0 0 0 0 0 0 0 0 0 0 0 0 0 0 0 0 0 0 0 0 0 0 0 0 0 0 0 0 0 0 0 0 0 0 0 0 0 0 -30.69616017113405 0 0 -15.890180134974713 0 0 0 0 0 0 0 0 0 0 -10.00786423189875 9.45300963440727 -2.44254453406246 37.720986397034935 23.66747347195711 119.84264296499285 24.99512046009254 6.671889464768897 -4.570520615508839 47.19032015848949 -45.37742810869865 -34.94669666283332 0 0 0 0 0 0 0 0 0 0 0 0 0 0 0 0 0 0 0 0 0 0 0 0 0 0 0 0 0 0 0 0 0 0 0 0 0 0 0 0 0 0 0 0 0
-0.9359764453778902 -7.705381342226952 6.32125931736618 -179.99999454404949 79.43876615509674 -179.99999363647524 -170.83480793751446 -77.33089125073768 -142.52801847549244 -27.02208837322521 74.87939412358355 -17.598399447497336 -61.746286005764425 45.20369075260283 -18.367648311402636 0 0 0 171.26921946883735 -77.2228437683282 141.95664010662173 27.01803649706815 74.88643927196141 17.554236389506737 61.81442112183715 45.31218627903139 18.257253839686157 0 0 0 -0.3198392893495398 -8.252443303719469 -0.050636059740629846 -1.7183259157820951 -13.331254630136039 -0.33474802143666355 0 0 0 -25.53182692153129 -9.85023159265552 0.8709549141423161 -20.091923895664173 1.3183041924022474 6.9012762870877875 -41.04196337978536 6.846679599314864 38.80349195221266 -0.3622111137708657 -9.339664968404596 11.983679556556988 0 0 0 0 0 0 0 0 0 0 0 0 0 0 0 0 0 0 0 0 0 0 0 0 0 0 0 0 0 0 0 0 0 0 0 0 0 0 0 0 0 0 0 0 0 0 -31.918026808123276 0 0 -16.77903445144875 0 0 0 0 0 0 0 0 0 0 -9.184430863684147 7.390176584474002 0.4591272140466728 34.913990272166856 27.5177919697699 117.72637376910681 29.84862612310995 3.330643740530453 -4.345867517242649 43.45285715423808 -48.21506648373861 -31.33028414742142 0 0 0 0 0 0 0 0 0 0 0 0 0 0 0 0 0 0 0 0 0 0 0 0 0 0 0 0 0 0 0 0 0 0 0 0 0 0 0 0 0 0 0 0 0
-0.9359764453778902 -7.733776170962049 6.32125931736618 180 80.55058831906736 -179.999999 -172.67480481021343 -77.7457458146792 -139.6365143779634 -27.02209128893632 74.87939412358355 -17.598402567339303 -62.424189681385165 45.78179940506329 -17.613508470203328 0 0 0 173.17302707232687 -77.60674857412046 138.96945741470287 27.01804090172934 74.88643927196141 17.554239511532277 62.51818969353316 45.91873939985014 17.489835958694293 0 0 0 -0.3204986235970353 -8.919157373832643 -0.046823354606528596 -1.7001137072890902 -10.431738881773898 -0.4229770878442114 0 0 0 -25.789024301041252 -10.21325997742755 1.7516494283325592 -20.091925499719295 1.31830440590217 6.901275863181702 -40.69786329847309 6.571778744287486 38.5476537418295 -0.4749370627822318 -9.707630183491382 12.615230956935534 0 0 0 0 0 0 0 0 0 0 0 0 0 0 0 0 0 0 0 0 0 0 0 0 0 0 0 0 0 0 0 0 0 0 0 0 0 0 0 0 0 0 0 0 0 0 -32.52923384518308 0 0 -17.223571913234053 0 0 0 0 0 0 0 0 0 0 -8.812369952452995 6.339925220037376 1.899423239704672 33.40128555586978 29.41845155740333 116.55086296426187 32.26930423477953 1.6531523246881215 -4.340139930740626 41.39382154665204 -49.57552698299751 -29.331211103232718 0 0 0 0 0 0 0 0 0 0 0 0 0 0 0 0 0 0 0 0 0 0 0 0 0 0 0 0 0 0 0 0 0 0 0 0 0 0 0 0 0 0 0 0 0
-0.9359764453778902 -7.790566902001329 6.32125931736618 180 82.77653270652917 180 -176.85074100691028 -78.51058348244061 -133.3571588891524 -27.022094204647285 74.87939412358355 -17.598407247102063 -63.77056255154427 46.958599029686916 -16.10843956007595 0 0 0 177.4441163282798 -78.30509364290357 132.53095411863592 27.018045277446173 74.88643927196141 17.554244194570384 63.91623538931076 47.153635179152246 15.959002188451164 0 0 0 -0.32195785663749366 -10.253085105318494 -0.039147585968783795 -1.6773499009720603 -4.590902648664699 -0.5962392349750317 0 0 0 -26.321640659269896 -10.927926303433207 3.5224210350483482 -20.091925499719295 1.3183047261520542 6.901276710993873 -40.00632600191006 6.026458093254907 38.031282405448096 -0.7132189513566963 -10.44007817889311 13.883256456171974 0 0 0 0 0 0 0 0 0 0 0 0 0 0 0 0 0 0 0 0 0 0 0 0 0 0 0 0 0 0 0 0 0 0 0 0 0 0 0 0 0 0 0 0 0 0 -33.75205037790835 0 0 -18.112790903409728 0 0 0 0 0 0 0 0 0 0 -8.14841015715257 4.207603922053047 4.759881689376195 30.128790215341994 33.14825009570947 113.93695230003428 37.103273939477035 -1.6895757176721014 -4.540573248334604 36.85468589948713 -52.150368623031625 -24.910881256521034 0 0 0 0 0 0 0 0 0 0 0 0 0 0 0 0 0 0 0 0 0 0 0 0 0 0 0 0 0 0 0 0 0 0 0 0 0 0 0 0 0 0 0 0 0
-0.935976176985619 -7.81896226752097 6.32125931736618 180 83.89025503073641 180 -179.19786378468143 -78.85558159009196 -129.95850887849426 -27.02209128893632 74.87939412358355 -17.598402567339303 -64.43858110907443 47.55669627615918 -15.357879061117414 0 0 0 179.8155011922235 -78.61465685361307 129.07591127392064 27.01804819459054 74.88643927196141 17.55424731659566 64.6099897314325 47.78134101422873 15.195955181309612 0 0 0 -0.32275865844142076 -10.920205744518906 -0.03528272400019358 -1.6726342259868496 -1.6570493995281146 -0.6819733262960044 0 0 0 -26.596939604631594 -11.279257350766176 4.412357674063467 -20.091925499719295 1.3183047261520542 6.901276710993873 -39.658927707186294 5.756099343369262 37.770787708819675 -0.8387825819860713 -10.804410059806935 14.519741377925744 0 0 0 0 0 0 0 0 0 0 0 0 0 0 0 0 0 0 0 0 0 0 0 0 0 0 0 0 0 0 0 0 0 0 0 0 0 0 0 0 0 0 0 0 0 0 -34.36357512293735 0 0 -18.557445910531307 0 0 0 0 0 0 0 0 0 0 -7.856758282103157 3.1279210293268562 6.180517146524499 28.356637354636906 34.967480427735595 112.48643572936737 39.51841617253107 -3.3445381413071287 -4.745623294374603 34.35999586323483 -53.35170605754583 -22.475048943480328 0 0 0 0 0 0 0 0 0 0 0 0 0 0 0 0 0 0 0 0 0 0 0 0 0 0 0 0 0 0 0 0 0 0 0 0 0 0 0 0 0 0 0 0 0
-0.935976176985619 -7.875752730167978 6.321258780581639 180 86.11808528895021 180 175.5821553530947 -79.45702304539289 -122.63665962102549 -27.02208837322521 74.87939412358355 -17.598399447497336 -65.76289840281824 48.77082677556172 -13.86139812538909 0 0 0 -174.98255705590975 -79.1420442372658 121.70773164381447 27.01803357992336 74.88643927196141 17.55423326748109 65.98568468139158 49.05561169195819 13.675535033332428 0 0 0 -0.32450295103678484 -12.2545400057656 -0.027497682252533618 -1.676385863936908 4.218383340622415 -0.8533496338178063 0 0 0 -27.165230547565272 -11.969185545934218 6.200959649577865 -20.091925499719295 1.3183047261520542 6.901276710993873 -38.960865535021654 5.220101481679405 37.24519249474159 -1.1027571508830007 -11.528897323597517 15.797652465962077 0 0 0 0 0 0 0 0 0 0 0 0 0 0 0 0 0 0 0 0 0 0 0 0 0 0 0 0 0 0 0 0 0 0 0 0 0 0 0 0 0 0 0 0 0 0 -35.58669603022284 0 0 -19.44678915927149 0 0 0 0 0 0 0 0 0 0 -7.354497490035046 0.9475640680834464 9.003978263545603 24.50800363529418 38.48750979530942 109.26632284394935 44.303773227124424 -6.623171325369324 -4.769502571680902 28.893304750289136 -55.54686386783112 -17.124988169915724 0 0 0 0 0 0 0 0 0 0 0 0 0 0 0 0 0 0 0 0 0 0 0 0 0 0 0 0 0 0 0 0 0 0 0 0 0 0 0 0 0 0 0 0 0
